<svg width="16" height="22" viewBox="0 0 16 22" fill="none" xmlns="http://www.w3.org/2000/svg">
<path d="M8.00016 0C3.58939 0 0 3.52677 0 7.85904C0 10.1679 1.02576 12.2404 2.64565 13.6796V21.3542C2.64621 21.5889 2.77599 21.8049 2.98481 21.9186C3.19364 22.0326 3.44898 22.0264 3.65193 21.9028L8.00002 19.2523L12.3532 21.9028C12.5562 22.0264 12.8115 22.0326 13.0204 21.9186C13.2292 21.8049 13.359 21.5889 13.3595 21.3542V13.6759C14.9766 12.237 16 10.1657 16 7.85904C16 3.52658 12.4108 0 7.99984 0H8.00016ZM8.00016 1.29428C11.6988 1.29428 14.6827 4.22628 14.6827 7.85904C14.6827 11.4918 11.699 14.4229 8.00016 14.4229C4.30136 14.4229 1.31767 11.4922 1.31767 7.85904C1.31767 4.22591 4.30136 1.29428 8.00016 1.29428ZM7.95899 3.17754C7.69299 3.19416 7.46321 3.36461 7.37606 3.60982L6.55896 5.90133L4.0703 5.95063C3.78941 5.95713 3.54346 6.13552 3.45668 6.39572C3.36973 6.65591 3.4611 6.94121 3.68426 7.10715L5.66722 8.57334L4.94791 10.8939C4.86795 11.1559 4.96629 11.4387 5.19351 11.5992C5.42053 11.7599 5.72698 11.7634 5.95804 11.6081L8.0002 10.2241L10.0436 11.6081C10.2747 11.7653 10.5826 11.763 10.8108 11.6019C11.0391 11.441 11.1376 11.1568 11.0563 10.894L10.3358 8.57337L12.32 7.10718C12.5433 6.94106 12.6345 6.65541 12.5474 6.39524C12.4603 6.13486 12.2137 5.95665 11.9327 5.95069L9.44403 5.90139L8.62693 3.60988C8.5295 3.33596 8.25615 3.15901 7.95911 3.17761L7.95899 3.17754ZM8.00016 5.78635L8.34502 6.74693C8.4362 7.00171 8.68069 7.17415 8.95755 7.1792L10.0037 7.20069L9.16857 7.81621C8.94835 7.97926 8.85533 8.25859 8.93566 8.51641L9.23806 9.49091L8.37978 8.90951C8.15239 8.75531 7.85055 8.75531 7.62316 8.90951L6.76488 9.49091L7.06728 8.51641C7.14761 8.25857 7.05459 7.97924 6.83437 7.81621L5.99924 7.20069L7.04538 7.1792C7.32241 7.17415 7.56671 7.00171 7.65791 6.74693L8.00016 5.78635ZM12.042 14.629V20.193L8.3502 17.9432C8.13733 17.8136 7.86821 17.8136 7.65531 17.9432L3.96352 20.193V14.6318C5.15032 15.317 6.52719 15.7175 8.00016 15.7175C9.47521 15.7175 10.8541 15.3161 12.042 14.6293V14.629Z" fill="#1A162E"/>
</svg>
