<svg width="22" height="22" viewBox="0 0 22 22" fill="none" xmlns="http://www.w3.org/2000/svg">
<path d="M20.9076 21.4612C20.9917 17.0729 18.2217 13.0365 14.3813 11.5387C10.5059 10.0304 5.97674 11.339 3.3649 14.7235C1.91792 16.5999 1.05079 19.0225 1.09539 21.4612C1.11026 22.1392 2.10128 22.1392 2.08641 21.4612C2.01209 17.5669 4.45512 13.8934 7.88441 12.5533C9.65858 11.8595 11.6061 11.7702 13.4244 12.3168C15.1737 12.8372 16.7348 13.9355 17.8942 15.4174C19.1975 17.0834 19.9558 19.2906 19.916 21.4612C19.9013 22.1339 20.8923 22.1339 20.9072 21.4612L20.9076 21.4612Z" fill="#1A162E"/>
<path d="M0.47935 21.9869H2.5755H7.61025H13.6759H18.9191C19.7715 21.9869 20.6338 22.0184 21.486 21.9869H21.5208C22.1601 21.9869 22.1601 20.9359 21.5208 20.9359H19.4246H14.3899H8.32421H3.08106C2.22862 20.9359 1.36636 20.9044 0.51409 20.9359H0.47935C-0.159783 20.9359 -0.159783 21.9869 0.47935 21.9869Z" fill="#1A162E"/>
<path d="M9.52833 7.17145C9.88022 6.35156 10.4105 5.47395 10.2122 4.53844C10.1329 4.16012 9.93467 3.81315 9.687 3.53471C9.49861 3.31915 9.32525 3.11423 9.28567 2.80941C9.24108 2.44686 9.4293 2.06835 9.54838 1.73731C9.67715 1.37989 9.80608 1.02267 9.93485 0.665207C10.029 0.402361 9.8308 0.087112 9.58797 0.0187448C9.31039 -0.0600722 9.07259 0.11864 8.97839 0.386614C8.87434 0.680982 8.76528 0.975173 8.66124 1.26952C8.54232 1.59542 8.38867 1.93175 8.32922 2.27326C8.26475 2.64644 8.27961 3.03008 8.40855 3.38731C8.54232 3.7605 8.76528 4.01801 9.00813 4.3071C9.32027 4.68029 9.31543 5.13229 9.13205 5.56835C8.9784 5.92578 8.82475 6.28299 8.67127 6.6351C8.56222 6.89263 8.60197 7.20278 8.84964 7.35509C9.06759 7.49202 9.41948 7.42896 9.52837 7.17143L9.52833 7.17145Z" fill="#1A162E"/>
<path d="M12.9863 8.75348C13.3382 7.93359 13.8685 7.05598 13.6702 6.12047C13.5909 5.74215 13.3927 5.39518 13.145 5.11674C12.9566 4.90118 12.7833 4.69626 12.7437 4.39144C12.6991 4.02889 12.8873 3.65038 13.0064 3.31934C13.1352 2.96192 13.2641 2.6047 13.3929 2.24724C13.487 1.98439 13.2888 1.66914 13.046 1.60078C12.7684 1.52196 12.5306 1.70067 12.4364 1.96864C12.3323 2.26301 12.2233 2.5572 12.1192 2.85155C12.0003 3.17745 11.8467 3.51378 11.7872 3.85529C11.7228 4.22847 11.7376 4.61211 11.8666 4.96934C12.0003 5.34253 12.2233 5.60004 12.4661 5.88913C12.7783 6.26231 12.7734 6.71432 12.5901 7.15038C12.4364 7.5078 12.2828 7.86502 12.1293 8.21713C12.0202 8.47466 12.06 8.78481 12.3076 8.93712C12.5206 9.07405 12.8725 9.01099 12.9864 8.75346L12.9863 8.75348Z" fill="#1A162E"/>
</svg>
