<svg xmlns="http://www.w3.org/2000/svg" width="21" height="22" viewBox="0 0 21 22" fill="none">
    <path fill-rule="evenodd" clip-rule="evenodd" d="M14.5134 20.5003H6.16555C3.09919 20.5003 0.746786 19.3928 1.41498 14.9351L2.19301 8.89394C2.60491 6.66968 4.02367 5.81842 5.26852 5.81842H15.447C16.7102 5.81842 18.0466 6.73375 18.5225 8.89394L19.3006 14.9351C19.8681 18.8894 17.5797 20.5003 14.5134 20.5003Z" stroke="#1A162E" stroke-width="1.5" stroke-linecap="round" stroke-linejoin="round"/>
    <path d="M14.6502 5.59873C14.6502 3.21265 12.716 1.27836 10.3299 1.27836V1.27836C9.18088 1.27349 8.07727 1.72652 7.26308 2.53727C6.44889 3.34803 5.9912 4.44971 5.99121 5.59873H5.99121" stroke="#1A162E" stroke-width="1.5" stroke-linecap="round" stroke-linejoin="round"/>
    <path d="M13.296 10.1021H13.2502" stroke="#1A162E" stroke-width="1.5" stroke-linecap="round" stroke-linejoin="round"/>
    <path d="M7.46492 10.1022H7.41916" stroke="#1A162E" stroke-width="1.5" stroke-linecap="round" stroke-linejoin="round"/>
    </svg>