<svg width="10" height="10" viewBox="0 0 10 10" fill="none" xmlns="http://www.w3.org/2000/svg">
<path fill-rule="evenodd" clip-rule="evenodd" d="M3.7145 3.4845H5.5715V4.4095C5.839 3.8775 6.525 3.3995 7.5555 3.3995C9.531 3.3995 10 4.4585 10 6.4015V10H8V6.844C8 5.7375 7.7325 5.1135 7.0515 5.1135C6.107 5.1135 5.7145 5.786 5.7145 6.8435V10H3.7145V3.4845ZM0.285 9.915H2.285V3.3995H0.285V9.915ZM2.5715 1.275C2.57157 1.44264 2.53833 1.60862 2.47369 1.76329C2.40906 1.91797 2.31433 2.05826 2.195 2.176C1.9532 2.41631 1.62591 2.55083 1.285 2.55C0.944695 2.54977 0.618155 2.4156 0.376 2.1765C0.257106 2.05836 0.162693 1.91791 0.0981718 1.76322C0.0336507 1.60852 0.000289566 1.44261 0 1.275C0 0.9365 0.135 0.6125 0.3765 0.3735C0.618443 0.134079 0.94512 -0.000149605 1.2855 1.25132e-07C1.6265 1.25132e-07 1.9535 0.1345 2.195 0.3735C2.436 0.6125 2.5715 0.9365 2.5715 1.275Z" fill="white"/>
</svg>
