<svg width="12" height="10" viewBox="0 0 12 10" fill="none" xmlns="http://www.w3.org/2000/svg">
<path d="M12 1.18378C11.5506 1.3879 11.074 1.52189 10.586 1.58129C11.0943 1.26885 11.4847 0.774108 11.6685 0.184623C11.1852 0.478685 10.6565 0.685871 10.1051 0.797228C9.65602 0.306615 9.01622 0 8.30808 0C6.94842 0 5.84606 1.13033 5.84606 2.52444C5.84606 2.72233 5.86786 2.91498 5.90981 3.0998C3.86372 2.99448 2.04966 1.98946 0.835359 0.462109C0.623484 0.83496 0.502078 1.26866 0.502078 1.73125C0.502078 2.60712 0.93675 3.37978 1.59731 3.83252C1.20635 3.81996 0.823992 3.71168 0.482156 3.51672C0.482016 3.5273 0.482016 3.53787 0.482016 3.54849C0.482016 4.77164 1.33064 5.79199 2.45686 6.02391C2.09432 6.12501 1.71404 6.13981 1.34508 6.06717C1.65834 7.07012 2.56758 7.79996 3.64486 7.82039C2.80228 8.49745 1.7407 8.90106 0.587297 8.90106C0.388547 8.90106 0.192609 8.88909 0 8.86578C1.08952 9.58206 2.38359 10 3.77391 10C8.30236 10 10.7786 6.15321 10.7786 2.81721C10.7786 2.70772 10.7763 2.59885 10.7715 2.4906C11.2535 2.13332 11.6695 1.69079 12 1.18378Z" fill="white"/>
</svg>
